<?xml version="1.0" standalone="no"?>
<!DOCTYPE svg PUBLIC "-//W3C//DTD SVG 20010904//EN"
 "http://www.w3.org/TR/2001/REC-SVG-20010904/DTD/svg10.dtd">
<svg version="1.0" xmlns="http://www.w3.org/2000/svg"
 width="1024.000000pt" height="1024.000000pt" viewBox="0 0 1024.000000 1024.000000"
 preserveAspectRatio="xMidYMid meet">
<metadata>
Created by potrace 1.16, written by Peter Selinger 2001-2019
</metadata>
<g transform="translate(0.000000,1024.000000) scale(0.100000,-0.100000)"
fill="#000000" stroke="none">
<path d="M0 5120 l0 -5120 5114 0 c4654 0 5114 1 5120 16 3 9 6 2313 6 5120
l0 5104 -5120 0 -5120 0 0 -5120z m4775 3778 c69 -11 69 -12 35 -21 -302 -83
-506 -192 -681 -367 -150 -150 -264 -344 -316 -538 -23 -85 -26 -118 -27 -262
-1 -131 3 -179 18 -235 23 -90 92 -235 152 -325 48 -72 199 -224 254 -256 16
-10 30 -21 30 -24 0 -3 -22 -17 -48 -31 -56 -31 -178 -123 -207 -156 -21 -23
-42 -32 -30 -13 11 17 -3 42 -17 33 -7 -4 -47 -19 -88 -34 -41 -15 -95 -35
-120 -44 -25 -10 -63 -20 -85 -22 -22 -3 -43 -10 -46 -15 -3 -5 -29 -10 -58
-10 -29 -1 -55 -6 -58 -11 -3 -5 4 -6 18 -2 l24 7 -25 -22 c-28 -24 -62 -40
-88 -40 -13 0 -12 4 7 19 16 12 20 21 12 25 -6 4 -11 3 -11 -3 0 -6 -12 -8
-30 -4 -20 3 -30 1 -30 -6 0 -7 -15 -11 -40 -9 -39 2 -55 20 -27 31 6 3 2 6
-10 6 -13 1 -23 7 -23 15 0 17 -24 28 -45 20 -13 -5 -20 6 -16 28 0 4 -6 5
-14 2 -9 -4 -15 0 -15 10 0 9 -4 16 -10 16 -5 0 -7 -7 -3 -15 3 -9 2 -15 -3
-13 -10 3 -14 -5 -14 -24 0 -6 7 -3 16 8 13 16 15 16 10 2 -9 -29 4 -51 20
-37 12 10 13 8 8 -6 -5 -13 -4 -16 4 -11 7 4 12 2 12 -4 0 -7 7 -9 16 -6 14 5
15 4 4 -9 -7 -8 -16 -12 -21 -9 -15 9 -10 -5 13 -36 12 -16 19 -33 15 -36 -4
-4 -10 2 -14 12 -3 10 -19 32 -34 48 -44 45 -153 270 -192 394 -91 284 -87
601 9 891 207 622 798 1064 1469 1100 141 8 193 6 300 -11z m564 -105 c-3 -21
2 -26 12 -13 9 13 10 12 5 -3 -5 -15 -2 -17 17 -12 13 4 17 3 10 -2 -11 -8 4
-39 42 -91 4 -4 48 -14 72 -16 11 0 19 -4 17 -8 -2 -4 0 -9 6 -13 18 -11 11
-29 -25 -68 -32 -35 -35 -43 -33 -90 4 -61 -11 -69 -74 -41 -36 16 -41 16 -74
1 -51 -25 -81 -22 -79 6 1 12 -5 28 -14 35 -14 11 -14 11 2 6 13 -5 17 -1 17
20 0 28 -37 79 -51 70 -5 -3 -6 3 -3 13 4 14 1 12 -15 -6 -12 -13 -21 -19 -21
-14 0 5 3 13 7 17 4 3 8 16 10 29 4 22 18 42 31 42 4 1 17 6 30 13 12 7 29 12
36 10 8 -2 29 17 46 41 24 33 29 46 20 55 -9 8 -11 6 -8 -8 1 -10 -3 -20 -10
-22 -7 -1 -8 0 -2 3 5 2 7 9 4 14 -3 6 0 16 6 24 14 16 21 19 19 8z m1151
-103 c5 8 10 11 10 5 0 -5 12 -23 26 -40 15 -16 23 -24 20 -17 -10 17 -1 15
15 -5 10 -11 10 -14 2 -9 -21 12 -15 -9 8 -30 16 -14 23 -15 26 -6 3 6 14 12
26 11 21 0 21 -1 2 -9 -20 -9 -7 -15 23 -11 7 1 15 -5 18 -13 3 -9 10 -14 14
-11 21 13 -6 -38 -39 -72 -35 -37 -36 -40 -31 -99 l5 -61 -30 8 c-16 5 -45 16
-63 25 -25 12 -36 13 -47 4 -8 -6 -34 -18 -58 -25 l-43 -13 4 64 c3 51 0 65
-12 70 -9 3 -13 11 -9 17 3 6 1 7 -5 3 -7 -4 -12 -1 -12 7 0 22 -27 41 -34 25
-3 -7 -3 -2 0 12 8 34 35 62 51 55 8 -2 24 2 37 10 12 8 25 13 28 9 3 -3 9 -1
12 5 4 6 -2 8 -13 6 -15 -3 -19 1 -16 17 3 11 7 23 10 26 3 3 5 -2 5 -11 0
-24 15 -21 34 8 20 31 21 41 1 25 -8 -7 -15 -20 -16 -29 0 -12 -2 -11 -9 4
-11 26 -12 44 -1 26 7 -11 11 -9 21 9 10 18 14 20 21 9 8 -12 11 -12 19 1z
m-1616 -261 c14 -16 26 -33 26 -39 0 -5 9 -10 20 -10 11 0 20 5 20 10 0 6 5
10 11 10 5 0 8 -4 5 -9 -3 -5 1 -12 10 -15 12 -5 15 -2 10 9 -3 9 -2 13 4 10
18 -11 1 -79 -25 -98 -27 -20 -36 -76 -12 -78 10 0 10 -2 0 -6 -7 -2 -13 -11
-13 -19 0 -17 -31 -19 -48 -2 -7 7 -12 8 -12 3 0 -6 -4 -4 -9 4 -8 13 -15 12
-50 -3 -56 -26 -70 -18 -61 33 4 22 3 46 -1 53 -5 7 -9 9 -9 3 0 -5 -9 5 -21
24 -23 39 -22 63 5 67 10 1 22 6 25 11 3 4 12 8 19 9 27 2 31 5 38 27 5 12 7
24 7 27 -1 3 7 6 17 7 10 1 30 -12 44 -28z m1131 -413 c156 -35 298 -94 425
-178 102 -67 244 -210 317 -321 67 -100 136 -245 148 -310 6 -32 5 -37 -12
-37 -27 0 -191 -81 -266 -132 -174 -118 -336 -339 -403 -551 -15 -47 -22 -57
-40 -57 -13 0 -35 -5 -51 -11 -26 -10 -30 -8 -53 23 -90 120 -218 218 -332
257 -35 12 -104 27 -154 33 -78 10 -104 9 -177 -5 -48 -10 -108 -25 -134 -35
l-47 -17 -47 50 c-109 115 -314 202 -497 212 l-104 6 7 61 c19 163 82 341 173
486 173 275 441 455 789 531 72 15 115 18 238 14 83 -2 182 -11 220 -19z
m1505 4 c-8 -5 -10 -10 -5 -10 6 0 21 -24 34 -52 21 -45 25 -50 33 -33 6 14 6
11 3 -11 -4 -19 -1 -34 7 -40 28 -21 89 -35 125 -29 28 5 34 4 23 -4 -8 -6
-10 -11 -4 -11 5 0 20 -9 32 -20 27 -25 31 -100 7 -120 -8 -7 -12 -16 -9 -21
3 -5 1 -8 -4 -7 -15 5 -73 -42 -67 -53 4 -5 1 -8 -7 -7 -10 2 -13 -16 -14 -74
-1 -43 3 -78 8 -78 5 0 0 -13 -12 -30 -27 -38 -68 -40 -136 -5 -57 29 -90 32
-115 9 -26 -24 -86 -34 -122 -22 -18 6 -33 12 -35 14 -2 1 -6 42 -9 91 -5 93
-15 123 -38 123 -8 0 -15 4 -15 8 0 5 -11 14 -24 21 -47 26 -63 114 -26 151
11 11 25 21 30 21 53 7 127 33 143 52 15 17 15 21 3 31 -13 10 -13 13 1 31 15
20 15 20 10 -2 -7 -33 6 -28 27 10 38 66 55 77 115 77 40 0 52 -3 41 -10z
m-4992 -95 c20 -34 33 -45 52 -45 14 0 30 -4 37 -8 27 -17 15 -74 -19 -89 -19
-8 -22 -16 -19 -60 1 -28 -2 -54 -8 -57 -6 -4 -27 0 -47 9 -26 11 -40 12 -49
5 -21 -18 -69 -28 -90 -19 -17 6 -17 8 -2 8 14 1 17 10 17 54 0 37 -3 48 -10
37 -5 -8 -10 -12 -10 -7 0 17 -4 23 -26 50 -13 16 -24 32 -24 36 0 13 24 31
42 31 10 0 18 4 18 9 0 5 10 11 22 13 12 2 27 13 33 24 15 30 36 54 46 54 5 0
22 -20 37 -45z m4962 -898 c281 -77 520 -278 646 -542 65 -136 87 -235 87
-385 1 -140 -15 -221 -61 -323 -77 -168 -208 -304 -367 -378 -159 -74 38 -69
-2622 -69 -2659 0 -2457 -5 -2605 72 -193 99 -321 296 -335 514 -7 116 8 197
55 297 100 209 320 360 548 374 l90 6 13 -31 c43 -104 218 -325 346 -438 l66
-57 52 16 c29 9 81 21 117 27 86 15 187 -5 291 -58 l76 -38 12 78 c45 294 252
547 517 634 77 25 104 29 199 29 176 -1 323 -53 439 -157 48 -42 70 -68 127
-150 3 -5 29 7 58 26 61 42 160 75 247 83 124 12 270 -42 368 -135 49 -47 112
-142 133 -203 l17 -47 55 29 c74 38 160 59 243 59 l68 0 0 28 c0 50 39 182 75
258 120 249 379 444 657 493 75 14 322 6 388 -12z m349 -1974 c-3 -82 -6 -149
-7 -150 -1 0 -16 -6 -33 -12 -25 -8 -38 -8 -64 4 -37 18 -35 10 -41 147 l-6
107 79 25 c43 14 78 25 78 26 0 0 -3 -66 -6 -147z m-5222 116 c58 -20 63 -24
69 -56 4 -19 4 -77 2 -129 -6 -111 -19 -134 -78 -134 -67 0 -75 19 -78 191 -3
114 -1 149 9 149 7 0 41 -10 76 -21z m865 -86 c4 -88 -2 -178 -13 -205 -10
-24 -17 -28 -50 -28 -25 0 -46 7 -58 19 -11 11 -21 18 -23 16 -1 -2 -4 53 -5
121 l-2 124 74 0 75 0 2 -47z m536 -32 c3 -75 -11 -131 -32 -131 -6 0 -4 -4 3
-9 10 -6 -1 -8 -30 -4 -24 3 -50 10 -56 16 -17 12 -17 -5 -1 -21 9 -9 9 -12 0
-12 -7 0 -13 3 -13 8 -6 34 -9 69 -13 145 l-4 88 71 -3 72 -3 3 -74z m1031 12
c57 -198 82 -380 62 -463 -7 -33 -7 -47 2 -53 8 -6 6 -7 -5 -3 -10 3 -18 1
-18 -4 0 -12 -40 -25 -65 -21 -11 2 -32 9 -47 17 -18 9 -28 11 -28 4 0 -6 -5
-8 -11 -4 -8 5 -8 9 1 14 9 6 9 13 -1 31 -10 18 -14 83 -15 249 0 124 -1 229
-2 234 -1 6 -9 1 -17 -10 -14 -18 -15 -17 -4 8 7 15 16 25 20 22 5 -3 6 3 2
12 -4 11 -2 15 4 11 6 -4 13 0 17 8 3 10 19 15 45 15 l40 0 20 -67z m476 -20
c0 -45 -2 -80 -4 -78 -2 2 -20 -5 -39 -16 -20 -10 -46 -19 -57 -18 -11 0 -14
3 -7 6 9 3 6 11 -10 26 -19 18 -24 34 -27 95 l-3 73 74 -3 73 -3 0 -82z m465
11 c0 -87 -8 -108 -49 -122 -68 -24 -101 18 -101 127 l0 71 75 0 75 0 0 -76z
m1023 69 c4 -3 3 -11 -3 -18 -14 -16 -4 -38 12 -29 6 4 8 3 5 -2 -3 -6 5 -41
19 -80 41 -119 28 -265 -30 -313 -13 -11 -14 -17 -4 -30 12 -14 11 -14 -4 -3
-14 11 -24 11 -52 2 -36 -11 -167 -10 -160 2 6 10 -52 48 -61 40 -5 -4 -5 -1
-1 5 7 12 -16 57 -25 49 -2 -2 -5 35 -7 82 -2 71 2 100 22 156 13 39 21 77 18
85 -3 8 -1 12 4 8 6 -3 18 8 28 24 l18 31 107 -3 c58 -1 110 -4 114 -6z m503
-1 c-2 -4 -1 -41 3 -82 5 -53 3 -85 -7 -108 -7 -18 -10 -37 -7 -42 3 -4 -23
-8 -57 -7 -57 2 -62 4 -65 27 -11 73 -15 154 -9 185 l7 35 70 0 c39 0 68 -3
65 -8z m-1213 -18 c-2 -6 0 -15 6 -18 5 -4 13 3 16 14 11 35 28 17 67 -74 57
-131 69 -236 37 -318 -13 -32 -56 -49 -114 -45 -24 1 -39 -2 -38 -9 1 -6 -5
-11 -12 -11 -10 0 -12 4 -5 12 5 7 6 16 2 20 -4 5 -1 5 6 1 6 -4 12 -2 12 3 0
6 -4 11 -10 11 -6 0 -9 3 -8 8 1 4 -4 25 -11 46 -10 28 -11 59 -6 105 4 36 8
76 9 88 0 12 3 19 5 17 4 -4 41 82 41 94 0 2 -4 0 -10 -3 -6 -3 -7 1 -4 9 3 9
10 13 16 10 5 -3 3 7 -6 23 -12 24 -12 30 -1 30 7 0 11 -6 8 -13z m-1598 -89
c15 -38 32 -99 38 -135 8 -56 7 -71 -8 -103 -13 -29 -24 -38 -53 -43 -31 -6
-39 -3 -63 24 -15 17 -30 28 -32 25 -3 -3 -3 6 0 19 4 18 3 20 -6 8 -8 -11 -9
-3 -5 30 3 25 6 57 7 72 1 14 6 24 11 21 5 -3 6 0 4 8 -3 8 -11 13 -18 11 -11
-3 -11 0 -1 12 7 8 9 21 5 27 -5 8 -3 9 5 5 7 -5 10 -14 7 -22 -3 -8 -2 -14 3
-14 7 0 20 43 23 77 1 18 41 64 48 56 4 -4 20 -39 35 -78z m-1722 5 c8 -11 17
-17 22 -12 5 4 5 2 1 -5 -3 -6 7 -34 23 -61 55 -94 83 -188 84 -282 0 -85 -3
-113 -16 -126 -11 -11 -8 -26 3 -19 6 3 10 1 10 -5 0 -7 -6 -10 -14 -7 -7 3
-24 -2 -37 -11 -30 -21 -109 -21 -143 1 -14 10 -34 32 -43 50 -26 47 -22 208
7 302 12 39 23 80 23 92 1 11 5 19 10 16 10 -6 9 5 -5 30 -10 19 -9 20 4 9 13
-10 17 -8 28 18 15 35 24 37 43 10z m798 -41 c10 -12 16 -25 13 -30 -2 -5 3
-23 12 -41 10 -18 19 -44 20 -57 2 -13 7 -28 11 -32 5 -5 5 -41 1 -81 -10 -96
-10 -98 -18 -93 -4 2 -15 -2 -25 -9 -14 -10 -27 -11 -49 -4 -17 5 -41 11 -54
12 -28 4 -37 12 -23 21 6 3 11 1 11 -4 0 -6 5 -11 10 -11 6 0 3 14 -6 32 -12
23 -15 45 -10 87 4 31 8 67 9 81 1 14 8 31 15 38 13 14 17 36 5 29 -5 -3 -9
11 -10 32 l-2 36 14 -30 c7 -16 14 -23 14 -15 1 17 28 60 38 60 3 0 14 -10 24
-21z m4003 -211 c-3 -10 -1 -18 5 -18 6 0 11 -10 12 -22 0 -13 3 -17 6 -10 2
6 9 9 14 6 6 -4 6 -10 0 -17 -6 -8 -1 -27 16 -57 13 -25 22 -37 19 -27 -3 10
-2 15 3 12 6 -3 9 -18 9 -33 0 -15 7 -52 16 -82 9 -30 19 -91 22 -135 5 -70 3
-85 -18 -125 -19 -37 -31 -47 -66 -59 -87 -27 -152 8 -178 94 -15 55 -14 99 7
196 6 26 11 53 13 60 1 8 8 24 14 37 7 12 10 28 6 34 -4 6 -3 8 3 5 6 -4 16 6
21 21 17 42 18 57 4 54 -8 -1 -11 2 -7 8 3 6 10 8 14 6 10 -7 24 5 44 36 21
34 22 44 2 28 -18 -15 -20 -5 -2 14 15 17 29 0 21 -26z m-491 14 c8 -7 19 -30
26 -52 7 -25 16 -38 23 -34 7 4 8 3 4 -4 -4 -6 0 -35 9 -64 45 -151 -10 -262
-108 -217 -14 6 -30 21 -36 33 -15 27 -30 125 -21 131 4 3 10 23 14 45 3 22
17 65 31 96 24 55 34 93 16 66 -7 -11 -9 -11 -14 1 -4 11 1 14 18 12 14 -1 31
-7 38 -13z m-4650 -75 c-2 -4 2 -18 10 -31 9 -13 28 -67 42 -121 28 -102 35
-227 16 -278 -5 -14 -7 -29 -3 -33 4 -5 3 -6 -2 -2 -5 4 -18 1 -30 -7 -26 -19
-85 -19 -110 0 -10 8 -23 12 -29 8 -6 -3 -7 -1 -3 5 4 7 2 12 -4 12 -6 0 -8 5
-5 10 3 6 3 15 -1 21 -5 8 -9 8 -14 -1 -4 -7 -5 8 -3 34 4 28 2 46 -5 46 -6 0
-7 13 -1 39 5 21 7 48 4 60 -2 12 -1 19 4 17 4 -3 13 16 19 41 10 37 10 48 0
56 -10 6 -9 7 4 4 9 -3 19 1 22 9 4 10 2 12 -6 8 -7 -5 -8 -3 -3 6 4 7 2 16
-6 22 -11 8 -10 9 3 4 18 -5 68 38 68 59 0 5 -7 2 -15 -9 -13 -18 -14 -18 -12
2 0 11 4 19 8 16 4 -2 10 -1 13 4 2 4 14 8 25 8 11 0 17 -4 14 -9z m3831 -277
c44 -16 59 -63 57 -173 -2 -75 1 -97 10 -91 7 4 10 3 6 -2 -21 -34 79 -122
120 -107 35 13 50 39 21 34 -13 -2 -9 5 14 25 18 16 20 16 15 2 -3 -10 0 -19
9 -22 13 -5 14 0 9 24 -4 20 -2 35 8 45 12 11 17 12 20 2 3 -6 6 32 6 86 1
122 13 149 78 176 40 16 94 8 117 -18 10 -11 22 -51 28 -92 8 -53 13 -68 19
-54 7 19 8 19 8 -2 1 -13 -4 -23 -10 -23 -7 0 -10 -17 -7 -45 2 -25 0 -45 -4
-45 -5 0 -8 -20 -8 -45 0 -25 -4 -53 -9 -63 -5 -9 -15 -32 -22 -51 -15 -40
-92 -119 -125 -127 -13 -3 -22 -10 -19 -14 6 -9 -42 -18 -136 -26 -54 -5 -79
-2 -130 16 -71 25 -129 57 -129 71 0 18 -29 9 -35 -11 -3 -11 -10 -20 -15 -20
-5 0 -4 12 2 26 10 21 8 33 -11 72 -13 26 -30 60 -37 75 -10 20 -14 71 -14
173 0 137 1 146 23 168 43 45 88 57 141 36z m-3554 -163 c0 -5 8 -3 18 4 15
12 16 12 4 -2 -10 -13 -7 -28 18 -82 50 -111 72 -207 68 -302 -2 -46 -5 -82
-7 -80 -2 3 -12 -6 -22 -20 -24 -29 -78 -48 -115 -39 -47 11 -92 51 -104 92
-21 77 -6 224 32 295 11 21 17 45 14 53 -3 8 -2 13 3 10 14 -9 21 20 8 34 -9
10 -8 12 5 7 12 -4 20 5 33 36 16 39 18 41 31 22 8 -10 14 -23 14 -28z m4474
-119 c-6 -11 -5 -11 8 0 11 9 18 10 23 2 3 -6 12 -7 18 -3 7 4 6 0 -2 -10 -15
-19 -26 -23 -15 -5 4 7 3 8 -5 4 -9 -6 -9 -11 0 -22 6 -7 14 -12 18 -10 8 5
11 -17 17 -129 6 -115 10 -136 28 -129 8 3 12 13 10 22 -5 14 -3 13 10 -2 16
-20 12 -41 -6 -30 -7 4 -8 2 -4 -5 9 -14 146 -84 146 -75 0 4 9 -1 20 -11 11
-10 20 -22 20 -27 0 -4 9 -17 20 -28 11 -11 20 -27 20 -36 0 -8 4 -13 8 -10 5
3 8 -32 7 -77 -1 -49 3 -85 9 -90 7 -6 6 -7 -3 -5 -8 2 -29 -12 -47 -32 -36
-40 -80 -49 -139 -30 -39 13 -95 72 -95 100 0 11 -5 20 -11 20 -6 0 -8 8 -4
19 4 13 -5 25 -36 45 -22 15 -43 25 -47 22 -3 -3 1 -6 8 -6 7 0 11 -2 8 -5 -9
-10 -37 6 -32 19 5 12 -52 61 -71 61 -5 0 -10 7 -10 15 -1 20 -26 70 -34 66
-6 -4 -14 63 -15 124 0 63 8 125 21 150 13 26 8 43 -7 20 -16 -24 -11 -2 5 31
9 16 13 34 10 39 -3 6 1 7 9 4 9 -3 18 0 21 8 3 8 26 14 66 16 48 2 59 0 53
-10z m-2356 -31 c15 -4 37 -25 38 -37 1 -6 2 -16 3 -22 1 -9 4 -9 12 2 9 12
10 12 5 -4 -3 -10 -2 -35 4 -57 8 -30 7 -46 -4 -74 -8 -19 -13 -42 -9 -50 4
-11 1 -13 -11 -9 -9 3 -16 2 -16 -3 0 -6 -18 -18 -40 -28 -57 -26 -132 -17
-171 21 -17 16 -28 22 -24 12 4 -9 3 -18 -2 -21 -9 -6 -12 16 -19 143 -3 52
-1 80 4 72 7 -11 11 -8 17 10 4 12 6 29 6 36 -1 6 5 12 13 12 10 0 13 -6 10
-17 -5 -16 -4 -16 10 1 8 10 19 15 24 12 5 -3 17 0 27 8 16 11 56 9 123 -7z
m2960 -8 c-7 -4 5 -10 25 -14 20 -4 36 -10 35 -14 -1 -3 6 -20 15 -38 22 -41
22 -126 1 -162 -35 -60 -133 -81 -197 -44 -25 15 -37 18 -40 10 -3 -7 -5 -3
-6 8 0 11 -4 51 -7 88 -6 62 -4 70 17 93 16 17 18 24 8 25 -10 0 -10 2 -1 6 6
2 10 9 7 14 -4 5 0 6 8 3 8 -3 17 2 21 11 3 9 10 14 15 10 5 -3 12 -2 14 2 3
5 26 8 51 8 24 0 40 -3 34 -6z m-2565 -196 c-7 -2 -13 -9 -13 -14 0 -6 6 -9
13 -8 20 3 67 -20 67 -33 0 -9 -3 -9 -12 0 -7 7 -20 12 -31 12 -10 0 -15 4
-12 10 4 6 -1 7 -11 3 -14 -5 -13 -8 9 -19 13 -7 27 -21 31 -29 3 -9 11 -13
17 -9 8 4 9 3 5 -4 -4 -7 -2 -12 4 -12 6 0 9 -3 7 -7 -3 -5 0 -19 6 -33 14
-33 17 -79 6 -86 -5 -3 -9 -14 -9 -26 0 -11 -19 -38 -41 -59 -23 -22 -37 -39
-31 -39 6 0 14 5 17 10 10 16 25 11 18 -6 -5 -13 -1 -15 18 -10 13 3 18 3 11
0 -9 -4 -7 -13 9 -32 17 -22 20 -38 17 -93 -2 -37 -5 -66 -7 -63 -2 2 -16 -5
-31 -16 -25 -18 -45 -20 -174 -20 -164 0 -151 9 -137 -87 4 -29 4 -50 -1 -47
-4 3 -8 -8 -8 -25 0 -62 -105 -95 -160 -50 -22 19 -25 31 -30 113 l-5 91 -81
5 c-75 5 -84 7 -110 36 -16 17 -31 40 -32 50 -2 11 -7 24 -12 29 -4 6 -4 35 1
65 9 59 26 130 28 117 1 -5 6 -5 11 -2 6 4 8 11 4 16 -4 6 -10 6 -19 -1 -9 -8
-14 -5 -18 10 -3 11 -1 17 4 14 6 -3 17 0 25 7 13 10 17 10 24 0 5 -9 10 -10
14 -2 4 6 4 16 0 22 -3 6 0 15 7 20 24 15 34 10 13 -7 -19 -15 -19 -16 1 -9
11 4 29 9 40 10 31 5 32 6 5 16 -25 9 -25 9 3 5 15 -2 30 1 33 5 3 5 0 9 -5 9
-6 0 -11 5 -11 11 0 5 5 7 10 4 17 -10 34 6 19 17 -10 7 -6 8 14 5 37 -6 24 5
-21 19 l-37 10 47 0 c25 -1 44 -4 42 -8 -2 -3 5 -4 16 -1 11 3 18 9 15 12 -5
9 65 44 73 36 3 -3 0 -5 -6 -5 -7 0 -12 -6 -12 -14 0 -10 7 -12 22 -8 14 3 19
2 14 -6 -5 -8 1 -12 14 -12 12 0 19 4 15 9 -3 5 0 13 7 18 20 12 46 14 53 3 4
-6 -1 -7 -11 -3 -12 4 -15 3 -10 -5 4 -7 2 -20 -4 -29 -10 -16 -10 -15 -5 4 6
22 -9 41 -20 23 -3 -5 -2 -10 4 -10 6 0 8 -6 5 -14 -3 -8 -1 -17 5 -20 15 -9
51 48 46 74 -3 16 -1 19 8 12 8 -7 18 -6 30 2 22 17 22 24 0 28 -10 2 20 3 66
3 51 0 90 5 100 12 9 7 23 12 31 12 10 0 11 -2 3 -6z m-3039 -106 c-5 -18 -4
-20 7 -9 8 7 14 18 14 25 0 14 5 14 62 3 47 -8 84 -41 90 -76 5 -32 -15 -88
-35 -100 -9 -5 -12 -10 -5 -10 6 0 19 7 27 16 9 8 16 11 16 5 0 -5 -6 -13 -12
-18 -16 -9 -137 -11 -135 -1 1 4 -7 13 -18 21 -17 13 -20 27 -21 96 0 44 4 77
8 75 5 -3 6 -15 2 -27z m3840 10 c30 -20 34 -29 9 -20 -10 3 -16 4 -13 2 3 -2
24 -22 48 -44 39 -36 61 -46 27 -11 -14 13 -13 15 3 13 14 -1 18 -8 16 -26 -4
-35 13 -61 34 -55 13 5 14 4 4 -4 -11 -7 -11 -18 -3 -48 22 -79 12 -189 -21
-230 -63 -80 -131 -115 -233 -121 -144 -8 -130 0 -132 -79 -3 -76 -16 -110
-46 -120 -16 -5 -17 -8 -6 -15 9 -6 -4 -9 -37 -9 -57 0 -110 28 -131 70 -9 18
-13 102 -13 310 0 264 1 288 19 322 11 19 17 39 13 44 -4 4 -2 4 5 0 7 -4 24
0 37 9 37 25 106 33 257 31 110 -2 141 -5 163 -19z m-3476 -243 c21 -4 29 -11
25 -20 -3 -8 0 -14 6 -14 6 0 11 -8 11 -18 0 -10 7 -27 15 -38 11 -17 12 -33
5 -81 -17 -106 -54 -167 -149 -246 -21 -17 -28 -28 -19 -31 7 -3 20 -7 28 -9
15 -5 -17 -6 -139 -6 -56 0 -67 4 -93 28 -51 48 -52 161 -2 215 22 23 24 30
13 38 -11 8 -11 9 3 5 9 -3 24 1 35 8 10 8 14 15 10 15 -11 0 75 79 86 80 5 0
6 4 2 9 -6 11 38 44 80 59 37 13 45 14 83 6z m3991 -66 c14 0 19 -3 13 -7 -8
-5 -2 -14 17 -28 l29 -22 0 25 c0 13 -4 24 -9 24 -5 0 -9 5 -9 11 0 8 5 7 15
-1 9 -7 13 -20 11 -27 -5 -11 0 -13 16 -7 12 3 34 7 49 8 15 1 31 5 35 9 12
12 56 8 48 -4 -4 -8 0 -7 15 1 29 15 77 9 73 -9 -2 -11 1 -11 20 2 13 8 22 19
21 24 -1 5 23 9 53 10 29 0 52 -3 49 -7 -2 -4 -1 -38 4 -76 5 -38 7 -71 5 -73
-9 -10 -27 20 -33 54 -3 20 -10 37 -16 37 -13 2 -56 -62 -49 -73 2 -5 -2 -22
-11 -38 -8 -17 -15 -42 -15 -56 0 -34 -40 -94 -67 -101 -12 -3 -47 -4 -78 -2
-30 1 -55 0 -55 -4 0 -14 60 -26 94 -18 50 11 47 -7 -11 -59 -67 -60 -172
-108 -273 -126 -104 -18 -101 -18 -94 -1 3 8 1 17 -5 21 -13 7 -15 25 -3 25 5
0 14 -12 21 -26 6 -15 14 -24 17 -21 10 10 -30 68 -43 63 -9 -4 -11 8 -8 42 3
26 7 74 9 107 3 34 12 78 21 98 9 21 13 43 9 49 -4 6 -3 8 4 4 7 -4 10 16 10
64 -1 91 19 125 65 115 18 -3 43 -6 56 -7z m1207 -493 c28 -29 34 -43 34 -78
0 -62 -11 -117 -22 -111 -5 3 -18 -2 -28 -11 -15 -14 -31 -16 -67 -12 -38 4
-54 12 -81 42 -31 34 -34 42 -30 85 8 78 49 117 126 119 26 1 42 -7 68 -34z
m-2777 -80 c26 -30 31 -44 31 -86 0 -66 -27 -94 -98 -104 -28 -4 -55 -4 -61
-1 -15 10 -43 -5 -37 -21 4 -8 1 -11 -5 -7 -7 4 -10 -50 -9 -177 1 -101 1
-194 1 -207 -1 -27 -54 -62 -94 -62 -42 0 -90 26 -110 59 -14 24 -17 57 -17
208 0 98 -4 185 -9 192 -7 11 -25 14 -59 12 -64 -3 -116 19 -142 61 -24 40
-25 67 -3 112 12 26 25 37 52 44 20 6 147 10 282 11 l247 1 31 -35z m-1245 0
c15 -8 32 -12 37 -9 5 3 6 -3 2 -12 -5 -13 -2 -16 8 -12 12 5 15 -24 18 -190
4 -250 11 -272 94 -263 38 4 39 5 17 12 -23 8 -22 8 5 4 17 -2 39 -5 49 -7 10
-2 21 3 23 10 3 8 -1 10 -12 6 -15 -6 -55 21 -55 37 0 5 11 11 25 15 19 5 26
15 31 43 10 59 12 59 13 -1 1 -32 5 -58 11 -58 5 0 9 29 7 69 -1 38 2 67 7 64
5 -3 6 11 3 33 -3 21 -3 31 -1 22 5 -16 8 -16 37 6 43 32 77 38 111 21 15 -8
33 -12 40 -8 6 3 8 3 4 -2 -4 -4 1 -23 13 -41 12 -19 22 -57 24 -91 5 -60 -11
-170 -26 -179 -5 -3 -9 -13 -9 -23 0 -47 -116 -151 -194 -173 -60 -16 -83 -17
-169 -2 -97 16 -155 49 -206 117 -72 97 -72 99 -69 345 l3 221 34 30 c39 35
79 40 125 16z m-414 -4 c0 -5 -7 -11 -15 -15 -8 -3 -15 -11 -15 -18 0 -9 3 -9
12 0 14 14 106 16 128 2 9 -6 17 -5 21 1 4 7 9 4 12 -5 4 -9 2 -16 -4 -16 -7
0 -8 -7 -4 -17 14 -33 22 -93 13 -93 -5 0 -3 -10 3 -22 11 -22 11 -22 -6 -8
-17 14 -17 13 -11 -10 4 -14 4 -20 -1 -14 -5 8 -24 -2 -58 -32 -27 -25 -43
-44 -35 -43 38 4 49 -3 61 -38 6 -21 17 -41 23 -46 11 -7 -13 -31 -89 -91 -16
-14 -51 -27 -77 -31 -45 -7 -49 -6 -80 28 -82 87 -93 105 -98 155 -3 28 -2 48
2 46 4 -3 12 4 18 15 7 13 7 22 0 26 -17 10 -11 28 7 21 9 -4 20 -1 25 6 13
22 9 30 -12 23 -11 -3 -20 -2 -20 3 0 5 10 12 23 16 18 5 20 8 7 16 -17 11
-10 13 14 4 8 -3 12 -12 9 -20 -7 -20 1 -17 22 6 14 16 15 19 4 15 -13 -5 -15
0 -11 25 3 20 12 35 26 40 11 5 15 9 7 9 -8 1 -23 -7 -34 -16 -19 -17 -19 -17
-16 2 3 12 14 21 29 24 14 1 28 8 32 14 10 16 21 2 21 -28 0 -30 -1 -30 22 -5
17 18 17 20 2 14 -13 -5 -17 -1 -17 18 0 13 5 29 12 36 14 14 48 16 48 3z
m4225 -221 c-3 -5 0 -7 7 -5 17 7 48 -60 48 -103 0 -17 -7 -38 -16 -47 -24
-24 -12 -28 35 -12 41 15 56 7 24 -12 -17 -10 -17 -12 2 -26 11 -9 20 -19 20
-23 1 -4 6 -16 12 -27 10 -18 11 -46 4 -102 0 -7 -10 -17 -21 -23 -17 -9 -33
-5 -83 19 -34 16 -81 42 -104 56 -37 22 -43 24 -43 9 0 -9 -12 -27 -26 -40
-18 -18 -23 -30 -19 -45 6 -19 5 -20 -17 -7 -12 7 -27 13 -33 14 -5 0 -18 4
-27 8 -13 6 -33 -7 -79 -52 -54 -53 -68 -61 -113 -67 -49 -6 -52 -5 -78 26
-45 53 -31 142 29 189 21 17 23 21 9 26 -18 7 -40 77 -31 103 3 10 15 27 28
38 22 21 45 26 326 73 63 10 119 24 124 29 14 14 30 14 22 1z m-658 -62 c43
-40 20 -138 -32 -138 -8 0 -15 -6 -16 -12 0 -10 -2 -10 -6 0 -2 6 -12 12 -22
12 -38 0 -67 98 -38 130 10 12 9 12 -6 1 -19 -15 -32 -9 -24 11 3 9 26 14 62
16 48 2 62 -1 82 -20z m-1632 -259 c-3 -3 4 -23 14 -43 11 -20 21 -33 23 -29
3 4 3 2 2 -4 -2 -7 6 -34 16 -59 46 -106 61 -170 65 -267 2 -54 1 -96 -3 -93
-6 6 -47 -55 -44 -65 0 -4 -4 -6 -11 -6 -7 1 -28 -2 -47 -6 -19 -5 -53 -4 -75
0 -33 7 -46 18 -73 58 -33 49 -33 51 -30 147 1 54 5 98 9 98 4 0 36 87 44 120
1 3 19 40 40 82 27 54 44 76 56 75 10 -1 16 -4 14 -8z m-2176 -105 c6 -5 12
-20 14 -34 6 -40 22 -72 59 -121 19 -24 32 -51 30 -58 -4 -12 50 19 68 39 19
20 91 61 111 62 73 5 88 -1 104 -38 17 -42 20 -90 5 -99 -6 -4 -7 -11 -4 -17
4 -6 10 -5 16 3 7 10 8 7 5 -9 -3 -13 -3 -21 0 -18 4 3 20 -4 37 -17 17 -13
45 -29 63 -36 18 -7 31 -16 30 -20 -1 -3 6 -17 15 -31 38 -58 31 -131 -15
-159 -41 -26 -121 -10 -186 36 -23 17 -24 17 -17 -7 5 -21 5 -22 -3 -5 -5 11
-12 28 -15 38 -7 21 -32 23 -40 2 -3 -10 1 -15 11 -15 13 0 14 -3 6 -11 -8 -8
-2 -27 23 -69 18 -31 36 -75 40 -97 5 -35 2 -44 -20 -66 -66 -66 -131 -40
-212 86 -13 21 -24 43 -24 49 0 5 -11 23 -25 40 -14 16 -25 36 -25 45 0 10 -6
13 -16 9 -14 -5 -15 -4 -5 8 8 10 9 16 1 21 -5 3 -10 0 -11 -7 0 -9 -2 -9 -5
-1 -4 8 -14 6 -37 -7 -53 -31 -148 -41 -188 -20 -15 9 -19 7 -19 -6 0 -16 -1
-16 -17 -1 -82 75 -93 90 -93 122 0 86 50 123 166 126 l82 2 -40 70 c-22 39
-44 85 -49 101 -23 77 27 128 119 123 29 -2 56 -7 61 -13z m3026 -5 c-3 -3 4
-14 15 -24 11 -10 24 -32 30 -50 13 -39 7 -128 -9 -133 -6 -2 -11 -8 -11 -12
0 -5 -28 -66 -62 -137 l-63 -128 -5 -122 c-5 -118 -6 -123 -34 -152 -49 -51
-124 -54 -171 -7 -18 18 -26 21 -35 12 -10 -8 -10 -6 -1 12 6 12 8 22 3 22 -5
0 -9 6 -9 13 -5 96 -17 194 -25 202 -8 7 -9 6 -4 -2 5 -9 2 -11 -8 -7 -8 3
-13 11 -10 18 2 6 -8 23 -22 36 -21 19 -26 21 -21 8 9 -25 0 -22 -14 3 -8 15
-8 19 0 15 22 -14 10 11 -24 48 -19 21 -48 58 -64 82 -16 25 -32 40 -36 34 -8
-12 -25 -4 -25 13 0 7 4 6 10 -3 5 -8 10 -12 10 -8 0 3 3 14 7 24 4 12 3 15
-5 10 -14 -8 -6 41 13 91 17 42 71 67 123 58 30 -5 46 -16 78 -56 l39 -50 54
5 c49 5 70 17 71 38 0 4 -7 5 -15 2 -8 -4 -15 -4 -15 -1 0 13 26 63 39 77 13
13 14 13 7 -5 -18 -44 -16 -58 3 -21 11 21 18 44 14 50 -3 6 -3 8 2 4 4 -4 13
-1 19 8 6 8 28 20 48 27 39 14 110 18 103 6z m-3691 -10 c40 -19 51 -103 16
-134 -49 -44 -120 -7 -120 64 0 41 6 53 35 69 26 15 38 15 69 1z m2351 -149
c-3 -5 18 -52 48 -103 30 -51 62 -112 72 -135 10 -22 23 -38 28 -35 6 3 7 1 3
-5 -8 -13 34 -103 46 -96 4 3 7 -3 6 -13 -3 -37 2 -54 14 -47 7 4 8 3 4 -4 -4
-6 0 -38 9 -71 20 -79 19 -130 -5 -198 -36 -102 -120 -163 -227 -163 -74 0
-116 12 -162 47 -20 15 -43 27 -51 25 -9 -2 -11 0 -4 5 7 5 2 25 -17 60 -15
28 -29 50 -31 48 -5 -6 1 156 7 185 5 24 5 24 -10 6 -8 -11 -15 -15 -15 -9 0
5 9 18 20 28 11 10 20 24 20 31 0 7 12 39 26 69 21 48 23 59 12 73 -11 15 -11
15 2 5 14 -10 23 1 63 77 26 50 44 90 40 90 -3 0 3 10 14 23 11 12 30 40 43
62 21 35 38 54 48 55 2 0 0 -4 -3 -10z m2449 -55 c9 -14 22 -23 28 -19 7 4 8
3 4 -4 -10 -16 12 -54 26 -46 7 4 8 3 4 -4 -4 -6 0 -22 8 -34 8 -13 20 -45 26
-73 9 -40 8 -57 -5 -91 -22 -57 -44 -74 -107 -81 -65 -7 -110 13 -133 56 -16
33 -23 111 -10 131 4 7 2 16 -6 22 -11 7 -11 11 -1 15 6 2 12 14 13 26 0 12 3
16 6 9 3 -8 11 -4 24 12 22 27 24 43 6 38 -7 -2 -8 0 -4 5 5 4 15 8 23 8 7 0
13 5 13 10 -1 6 -6 9 -12 7 -6 -2 -5 3 2 12 7 8 18 13 26 10 7 -3 16 -1 20 5
11 18 32 12 49 -14z m-3146 -28 c8 -6 12 -6 12 1 0 6 7 9 15 6 8 -4 15 -10 15
-16 0 -5 -6 -6 -12 -2 -13 8 0 -12 33 -51 10 -11 22 -39 29 -63 6 -23 14 -41
18 -38 8 5 15 -64 15 -154 0 -64 -5 -121 -11 -115 -1 1 -17 -12 -35 -30 -43
-43 -121 -62 -180 -45 -65 18 -127 80 -127 128 0 13 -3 21 -7 19 -5 -3 -7 42
-5 99 2 60 7 104 13 104 6 0 7 5 3 11 -3 6 0 15 7 20 10 6 11 9 2 9 -21 0 -15
44 8 64 15 13 24 15 32 7 8 -8 6 -11 -6 -11 -9 0 -21 -9 -27 -19 -17 -33 -11
-34 19 -5 16 15 27 33 24 41 -6 15 23 53 40 53 6 0 0 -11 -13 -25 -29 -31 -19
-33 16 -2 40 35 88 41 122 14z m1387 -429 c5 4 5 1 1 -6 -10 -17 41 -91 71
-103 12 -4 40 -9 61 -10 30 -2 39 -7 37 -18 -2 -9 -4 -20 -4 -26 -1 -5 -19
-29 -40 -52 -38 -41 -39 -43 -34 -101 5 -48 3 -60 -11 -65 -9 -4 -16 -3 -16 1
0 10 -61 33 -71 26 -5 -3 -9 -1 -9 5 0 9 -29 4 -74 -15 -18 -7 -18 -8 0 -21
10 -7 13 -13 7 -13 -7 0 -15 5 -18 10 -3 6 -13 10 -21 10 -32 0 -41 22 -32 73
9 46 8 51 -18 78 -15 16 -30 26 -34 24 -4 -2 -7 1 -8 8 -1 7 -4 24 -8 39 -6
25 -4 27 49 38 58 12 88 32 66 46 -7 4 -9 3 -5 -4 3 -6 3 -13 -2 -16 -4 -2 -8
6 -8 19 0 19 3 22 13 13 9 -7 17 -7 28 2 19 16 10 30 -16 25 -17 -4 -19 -2 -9
11 10 11 16 12 28 2 12 -11 17 -9 30 10 10 16 18 19 27 12 6 -5 16 -6 20 -2z
m-1087 -261 c25 -23 30 -78 8 -96 -27 -22 -80 -25 -98 -4 -15 17 -31 116 -17
107 4 -2 19 3 35 11 30 15 37 13 72 -18z"/>
<path d="M5385 7251 c-94 -24 -170 -110 -163 -183 6 -62 77 -64 102 -4 39 93
154 93 202 1 15 -30 27 -41 48 -43 42 -5 59 15 53 64 -12 110 -134 193 -242
165z"/>
<path d="M6162 7246 c-86 -28 -151 -105 -152 -178 0 -55 70 -66 99 -15 43 71
82 93 141 77 31 -8 45 -21 69 -60 24 -38 37 -50 56 -50 60 0 65 88 8 158 -54
66 -142 93 -221 68z"/>
<path d="M5679 6967 c-18 -39 11 -94 63 -117 90 -41 194 -17 233 52 16 30 17
40 7 62 -16 35 -46 33 -90 -5 -29 -26 -41 -30 -70 -25 -19 3 -47 17 -62 31
-33 32 -67 33 -81 2z"/>
<path d="M5960 3555 l0 -65 68 0 c84 0 104 16 90 69 -5 18 -12 31 -15 28 -3
-3 0 -21 6 -39 10 -30 9 -31 -4 -14 -8 11 -15 32 -15 47 0 19 -6 28 -22 33
-37 9 -66 7 -72 -6 -5 -10 -7 -10 -12 0 -14 29 -24 7 -24 -53z"/>
</g>
</svg>
